{
  "accessors": [
    {
      "bufferView": 2,
      "componentType": 5126,
      "count": 3070,
      "max": [
        0.6481812000274658,
        1.7060036659240723,
        0.9572327136993408
      ],
      "min": [
        -0.6481812000274658,
        -1.4898393154144287,
        0.08927221596240997
      ],
      "type": "VEC3"
    },
    {
      "bufferView": 2,
      "byteOffset": 36840,
      "componentType": 5126,
      "count": 3070,
      "max": [
        1.0,
        0.9999999403953552,
        0.9999754428863525
      ],
      "min": [
        -1.0,
        -1.0,
        -1.0
      ],
      "type": "VEC3"
    },
    {
      "bufferView": 1,
      "componentType": 5126,
      "count": 3070,
      "max": [
        0.9495312571525574,
        0.9605755805969238
      ],
      "min": [
        0.0,
        0.0
      ],
      "type": "VEC2"
    },
    {
      "bufferView": 0,
      "componentType": 5125,
      "count": 7848,
      "type": "SCALAR"
    },
    {
      "bufferView": 2,
      "byteOffset": 73680,
      "componentType": 5126,
      "count": 112,
      "max": [
        0.6004746556282043,
        0.0772835984826088,
        0.6004788875579834
      ],
      "min": [
        -0.6004746556282043,
        -0.07726643979549408,
        -0.6004706621170044
      ],
      "type": "VEC3"
    },
    {
      "bufferView": 2,
      "byteOffset": 75024,
      "componentType": 5126,
      "count": 112,
      "max": [
        0.8627064824104309,
        1.0,
        0.8627064824104309
      ],
      "min": [
        -0.8627064228057861,
        0.5057049989700317,
        -0.8627064824104309
      ],
      "type": "VEC3"
    },
    {
      "bufferView": 1,
      "byteOffset": 24560,
      "componentType": 5126,
      "count": 112,
      "max": [
        0.4049593508243561,
        0.12641797959804535
      ],
      "min": [
        0.17647312581539154,
        0.026833076030015945
      ],
      "type": "VEC2"
    },
    {
      "bufferView": 0,
      "byteOffset": 31392,
      "componentType": 5125,
      "count": 330,
      "type": "SCALAR"
    },
    {
      "bufferView": 2,
      "byteOffset": 76368,
      "componentType": 5126,
      "count": 192,
      "max": [
        0.035628192126750946,
        0.04813889041543007,
        0.03562857583165169
      ],
      "min": [
        -0.7385551929473877,
        -0.15054762363433838,
        -0.035627782344818115
      ],
      "type": "VEC3"
    },
    {
      "bufferView": 2,
      "byteOffset": 78672,
      "componentType": 5126,
      "count": 192,
      "max": [
        1.0,
        1.0,
        1.0
      ],
      "min": [
        -1.0,
        -3.665666170604709e-08,
        -1.0
      ],
      "type": "VEC3"
    },
    {
      "bufferView": 1,
      "byteOffset": 25456,
      "componentType": 5126,
      "count": 192,
      "max": [
        0.4107155501842499,
        0.09788447618484497
      ],
      "min": [
        0.08043022453784943,
        0.006956115365028381
      ],
      "type": "VEC2"
    },
    {
      "bufferView": 0,
      "byteOffset": 32712,
      "componentType": 5125,
      "count": 636,
      "type": "SCALAR"
    },
    {
      "bufferView": 2,
      "byteOffset": 80976,
      "componentType": 5126,
      "count": 112,
      "max": [
        0.016620058566331863,
        0.07584123313426971,
        0.010663258843123913
      ],
      "min": [
        -1.2134628295898438,
        -0.06728480011224747,
        -0.011074665933847427
      ],
      "type": "VEC3"
    },
    {
      "bufferView": 2,
      "byteOffset": 82320,
      "componentType": 5126,
      "count": 112,
      "max": [
        0.9902012944221497,
        1.0,
        1.0
      ],
      "min": [
        -0.9919662475585938,
        -1.0,
        -1.0
      ],
      "type": "VEC3"
    },
    {
      "bufferView": 1,
      "byteOffset": 26992,
      "componentType": 5126,
      "count": 112,
      "max": [
        0.34767505526542664,
        0.11829070746898651
      ],
      "min": [
        0.2190139889717102,
        0.00998335424810648
      ],
      "type": "VEC2"
    },
    {
      "bufferView": 0,
      "byteOffset": 35256,
      "componentType": 5125,
      "count": 252,
      "type": "SCALAR"
    },
    {
      "bufferView": 2,
      "byteOffset": 83664,
      "componentType": 5126,
      "count": 372,
      "max": [
        0.15928782522678375,
        0.09428581595420837,
        0.04853791743516922
      ],
      "min": [
        -1.209606409072876,
        -0.026073932647705078,
        -0.04349488019943237
      ],
      "type": "VEC3"
    },
    {
      "bufferView": 2,
      "byteOffset": 88128,
      "componentType": 5126,
      "count": 372,
      "max": [
        1.0,
        0.942741870880127,
        0.9984414577484131
      ],
      "min": [
        -1.0,
        -0.9713692665100098,
        -1.0
      ],
      "type": "VEC3"
    },
    {
      "bufferView": 1,
      "byteOffset": 27888,
      "componentType": 5126,
      "count": 372,
      "max": [
        0.4093097746372223,
        0.6375861763954163
      ],
      "min": [
        0.011393213644623756,
        0.0055791158229112625
      ],
      "type": "VEC2"
    },
    {
      "bufferView": 0,
      "byteOffset": 36264,
      "componentType": 5125,
      "count": 1236,
      "type": "SCALAR"
    },
    {
      "bufferView": 2,
      "byteOffset": 92592,
      "componentType": 5126,
      "count": 84,
      "max": [
        0.3347184658050537,
        0.06732162833213806,
        0.04217870533466339
      ],
      "min": [
        -0.3347184658050537,
        -0.022174902260303497,
        -0.060376331210136414
      ],
      "type": "VEC3"
    },
    {
      "bufferView": 2,
      "byteOffset": 93600,
      "componentType": 5126,
      "count": 84,
      "max": [
        0.3580770492553711,
        -0.9336920976638794,
        0.0
      ],
      "min": [
        -0.3580770492553711,
        -1.0,
        0.0
      ],
      "type": "VEC3"
    },
    {
      "bufferView": 1,
      "byteOffset": 30864,
      "componentType": 5126,
      "count": 84,
      "max": [
        0.394540011882782,
        0.10271230340003967
      ],
      "min": [
        0.3763071298599243,
        0.025319570675492287
      ],
      "type": "VEC2"
    },
    {
      "bufferView": 0,
      "byteOffset": 41208,
      "componentType": 5125,
      "count": 216,
      "type": "SCALAR"
    },
    {
      "bufferView": 2,
      "byteOffset": 94608,
      "componentType": 5126,
      "count": 32,
      "max": [
        0.018872810527682304,
        -1.1769304819608806e-07,
        0.024936039000749588
      ],
      "min": [
        -0.018872810527682304,
        -1.1920928955078125e-07,
        -0.025940755382180214
      ],
      "type": "VEC3"
    },
    {
      "bufferView": 2,
      "byteOffset": 94992,
      "componentType": 5126,
      "count": 32,
      "max": [
        1.1421713352888219e-08,
        -1.0,
        -2.4681078514277033e-08
      ],
      "min": [
        -1.1421713352888219e-08,
        -1.0,
        -4.6515182816619927e-08
      ],
      "type": "VEC3"
    },
    {
      "bufferView": 1,
      "byteOffset": 31536,
      "componentType": 5126,
      "count": 32,
      "max": [
        0.9721713662147522,
        0.7300083637237549
      ],
      "min": [
        0.8973514437675476,
        0.6291595101356506
      ],
      "type": "VEC2"
    },
    {
      "bufferView": 0,
      "byteOffset": 42072,
      "componentType": 5125,
      "count": 66,
      "type": "SCALAR"
    },
    {
      "bufferView": 2,
      "byteOffset": 95376,
      "componentType": 5126,
      "count": 12,
      "max": [
        0.11192671954631805,
        0.04456251859664917,
        0.0
      ],
      "min": [
        -0.11192671954631805,
        -0.04456251859664917,
        0.0
      ],
      "type": "VEC3"
    },
    {
      "bufferView": 2,
      "byteOffset": 95520,
      "componentType": 5126,
      "count": 12,
      "max": [
        0.0,
        0.0,
        1.0
      ],
      "min": [
        0.0,
        0.0,
        1.0
      ],
      "type": "VEC3"
    },
    {
      "bufferView": 1,
      "byteOffset": 31792,
      "componentType": 5126,
      "count": 12,
      "max": [
        0.9739682674407959,
        0.9688618779182434
      ],
      "min": [
        0.17145492136478424,
        0.018550725653767586
      ],
      "type": "VEC2"
    },
    {
      "bufferView": 0,
      "byteOffset": 42336,
      "componentType": 5125,
      "count": 30,
      "type": "SCALAR"
    },
    {
      "bufferView": 2,
      "byteOffset": 95664,
      "componentType": 5126,
      "count": 12,
      "max": [
        0.11192671954631805,
        0.04456251859664917,
        0.0
      ],
      "min": [
        -0.11192671954631805,
        -0.04456251859664917,
        0.0
      ],
      "type": "VEC3"
    },
    {
      "bufferView": 2,
      "byteOffset": 95808,
      "componentType": 5126,
      "count": 12,
      "max": [
        0.0,
        0.0,
        1.0
      ],
      "min": [
        0.0,
        0.0,
        1.0
      ],
      "type": "VEC3"
    },
    {
      "bufferView": 1,
      "byteOffset": 31888,
      "componentType": 5126,
      "count": 12,
      "max": [
        0.9739682674407959,
        0.9688618779182434
      ],
      "min": [
        0.17145492136478424,
        0.018550725653767586
      ],
      "type": "VEC2"
    },
    {
      "bufferView": 0,
      "byteOffset": 42456,
      "componentType": 5125,
      "count": 30,
      "type": "SCALAR"
    },
    {
      "bufferView": 2,
      "byteOffset": 95952,
      "componentType": 5126,
      "count": 32,
      "max": [
        0.018872810527682304,
        -1.1769304819608806e-07,
        0.024936039000749588
      ],
      "min": [
        -0.018872810527682304,
        -1.1920928955078125e-07,
        -0.025940755382180214
      ],
      "type": "VEC3"
    },
    {
      "bufferView": 2,
      "byteOffset": 96336,
      "componentType": 5126,
      "count": 32,
      "max": [
        1.1421713352888219e-08,
        -1.0,
        -2.4681078514277033e-08
      ],
      "min": [
        -1.1421713352888219e-08,
        -1.0,
        -4.6515182816619927e-08
      ],
      "type": "VEC3"
    },
    {
      "bufferView": 1,
      "byteOffset": 31984,
      "componentType": 5126,
      "count": 32,
      "max": [
        0.9721713662147522,
        0.7300083637237549
      ],
      "min": [
        0.8973514437675476,
        0.6291595101356506
      ],
      "type": "VEC2"
    },
    {
      "bufferView": 0,
      "byteOffset": 42576,
      "componentType": 5125,
      "count": 66,
      "type": "SCALAR"
    },
    {
      "bufferView": 2,
      "byteOffset": 96720,
      "componentType": 5126,
      "count": 52,
      "max": [
        0.01887287013232708,
        0.7654926776885986,
        0.024936039000749588
      ],
      "min": [
        -0.018872810527682304,
        -1.1920928955078125e-07,
        -0.025940755382180214
      ],
      "type": "VEC3"
    },
    {
      "bufferView": 2,
      "byteOffset": 97344,
      "componentType": 5126,
      "count": 52,
      "max": [
        1.1421713352888219e-08,
        1.0,
        0.0
      ],
      "min": [
        -1.1421713352888219e-08,
        -1.0,
        -4.6515182816619927e-08
      ],
      "type": "VEC3"
    },
    {
      "bufferView": 1,
      "byteOffset": 32240,
      "componentType": 5126,
      "count": 52,
      "max": [
        0.9721713662147522,
        0.7300083637237549
      ],
      "min": [
        0.8973514437675476,
        0.6291595101356506
      ],
      "type": "VEC2"
    },
    {
      "bufferView": 0,
      "byteOffset": 42840,
      "componentType": 5125,
      "count": 132,
      "type": "SCALAR"
    },
    {
      "bufferView": 2,
      "byteOffset": 97968,
      "componentType": 5126,
      "count": 360,
      "max": [
        0.13816818594932556,
        0.2437664270401001,
        0.24376653134822845
      ],
      "min": [
        -0.057214103639125824,
        -0.243766650557518,
        -0.24376654624938965
      ],
      "type": "VEC3"
    },
    {
      "bufferView": 2,
      "byteOffset": 102288,
      "componentType": 5126,
      "count": 360,
      "max": [
        1.0,
        1.0,
        1.0
      ],
      "min": [
        -0.9693102836608887,
        -1.0,
        -1.0
      ],
      "type": "VEC3"
    },
    {
      "bufferView": 1,
      "byteOffset": 32656,
      "componentType": 5126,
      "count": 360,
      "max": [
        0.4064036011695862,
        0.12763774394989014
      ],
      "min": [
        0.0072845760732889175,
        0.0016626357100903988
      ],
      "type": "VEC2"
    },
    {
      "bufferView": 0,
      "byteOffset": 43368,
      "componentType": 5125,
      "count": 1428,
      "type": "SCALAR"
    },
    {
      "bufferView": 2,
      "byteOffset": 106608,
      "componentType": 5126,
      "count": 672,
      "max": [
        0.0976911410689354,
        0.24376654624938965,
        0.24376648664474487
      ],
      "min": [
        -1.1742326021194458,
        -0.24376653134822845,
        -0.24376659095287323
      ],
      "type": "VEC3"
    },
    {
      "bufferView": 2,
      "byteOffset": 114672,
      "componentType": 5126,
      "count": 672,
      "max": [
        1.0,
        0.8630262017250061,
        0.8630261421203613
      ],
      "min": [
        -1.0,
        -0.8630262613296509,
        -0.8630263209342957
      ],
      "type": "VEC3"
    },
    {
      "bufferView": 1,
      "byteOffset": 35536,
      "componentType": 5126,
      "count": 672,
      "max": [
        0.4064036011695862,
        0.12763774394989014
      ],
      "min": [
        0.0072845760732889175,
        0.0016626357100903988
      ],
      "type": "VEC2"
    },
    {
      "bufferView": 0,
      "byteOffset": 49080,
      "componentType": 5125,
      "count": 2568,
      "type": "SCALAR"
    },
    {
      "bufferView": 2,
      "byteOffset": 122736,
      "componentType": 5126,
      "count": 360,
      "max": [
        0.057214103639125824,
        0.2437664270401001,
        0.24376653134822845
      ],
      "min": [
        -0.13816818594932556,
        -0.243766650557518,
        -0.24376654624938965
      ],
      "type": "VEC3"
    },
    {
      "bufferView": 2,
      "byteOffset": 127056,
      "componentType": 5126,
      "count": 360,
      "max": [
        0.9693102836608887,
        1.0,
        1.0
      ],
      "min": [
        -1.0,
        -1.0,
        -1.0
      ],
      "type": "VEC3"
    },
    {
      "bufferView": 1,
      "byteOffset": 40912,
      "componentType": 5126,
      "count": 360,
      "max": [
        0.4064036011695862,
        0.12763774394989014
      ],
      "min": [
        0.0072845760732889175,
        0.0016626357100903988
      ],
      "type": "VEC2"
    },
    {
      "bufferView": 0,
      "byteOffset": 59352,
      "componentType": 5125,
      "count": 1428,
      "type": "SCALAR"
    }
  ],
  "asset": {
    "extras": {
      "author": "anxietybot (https://sketchfab.com/anxietybot)",
      "license": "CC-BY-4.0 (http://creativecommons.org/licenses/by/4.0/)",
      "source": "https://sketchfab.com/3d-models/lowpoly-mustang-shelby-gt-h-6a6e08e515b543fca70ed2b6f597506f",
      "title": "Lowpoly Mustang Shelby GT-H"
    },
    "generator": "Sketchfab-14.60.0",
    "version": "2.0"
  },
  "bufferViews": [
    {
      "buffer": 0,
      "byteLength": 65064,
      "name": "floatBufferViews",
      "target": 34963
    },
    {
      "buffer": 0,
      "byteLength": 43792,
      "byteOffset": 65064,
      "byteStride": 8,
      "name": "floatBufferViews",
      "target": 34962
    },
    {
      "buffer": 0,
      "byteLength": 131376,
      "byteOffset": 108856,
      "byteStride": 12,
      "name": "floatBufferViews",
      "target": 34962
    }
  ],
  "buffers": [
    {
      "byteLength": 240232,
      "uri": "scene.bin"
    }
  ],
  "images": [
    {
      "uri": "textures/Paint_baseColor.png"
    }
  ],
  "materials": [
    {
      "doubleSided": true,
      "name": "Paint",
      "pbrMetallicRoughness": {
        "baseColorTexture": {
          "index": 0
        },
        "metallicFactor": 0.0
      }
    }
  ],
  "meshes": [
    {
      "name": "Plane_Paint_0",
      "primitives": [
        {
          "attributes": {
            "NORMAL": 1,
            "POSITION": 0,
            "TEXCOORD_0": 2
          },
          "indices": 3,
          "material": 0,
          "mode": 4
        }
      ]
    },
    {
      "name": "Cylinder_Paint_0",
      "primitives": [
        {
          "attributes": {
            "NORMAL": 5,
            "POSITION": 4,
            "TEXCOORD_0": 6
          },
          "indices": 7,
          "material": 0,
          "mode": 4
        }
      ]
    },
    {
      "name": "Cylinder.001_Paint_0",
      "primitives": [
        {
          "attributes": {
            "NORMAL": 9,
            "POSITION": 8,
            "TEXCOORD_0": 10
          },
          "indices": 11,
          "material": 0,
          "mode": 4
        }
      ]
    },
    {
      "name": "Cube_Paint_0",
      "primitives": [
        {
          "attributes": {
            "NORMAL": 13,
            "POSITION": 12,
            "TEXCOORD_0": 14
          },
          "indices": 15,
          "material": 0,
          "mode": 4
        }
      ]
    },
    {
      "name": "Cube.001_Paint_0",
      "primitives": [
        {
          "attributes": {
            "NORMAL": 17,
            "POSITION": 16,
            "TEXCOORD_0": 18
          },
          "indices": 19,
          "material": 0,
          "mode": 4
        }
      ]
    },
    {
      "name": "Plane.004_Paint_0",
      "primitives": [
        {
          "attributes": {
            "NORMAL": 21,
            "POSITION": 20,
            "TEXCOORD_0": 22
          },
          "indices": 23,
          "material": 0,
          "mode": 4
        }
      ]
    },
    {
      "name": "Plane.005_Paint_0",
      "primitives": [
        {
          "attributes": {
            "NORMAL": 25,
            "POSITION": 24,
            "TEXCOORD_0": 26
          },
          "indices": 27,
          "material": 0,
          "mode": 4
        }
      ]
    },
    {
      "name": "Plane.007_Paint_0",
      "primitives": [
        {
          "attributes": {
            "NORMAL": 29,
            "POSITION": 28,
            "TEXCOORD_0": 30
          },
          "indices": 31,
          "material": 0,
          "mode": 4
        }
      ]
    },
    {
      "name": "Plane.008_Paint_0",
      "primitives": [
        {
          "attributes": {
            "NORMAL": 33,
            "POSITION": 32,
            "TEXCOORD_0": 34
          },
          "indices": 35,
          "material": 0,
          "mode": 4
        }
      ]
    },
    {
      "name": "Plane.009_Paint_0",
      "primitives": [
        {
          "attributes": {
            "NORMAL": 37,
            "POSITION": 36,
            "TEXCOORD_0": 38
          },
          "indices": 39,
          "material": 0,
          "mode": 4
        }
      ]
    },
    {
      "name": "Plane.006_Paint_0",
      "primitives": [
        {
          "attributes": {
            "NORMAL": 41,
            "POSITION": 40,
            "TEXCOORD_0": 42
          },
          "indices": 43,
          "material": 0,
          "mode": 4
        }
      ]
    },
    {
      "name": "Cylinder.002_Paint_0",
      "primitives": [
        {
          "attributes": {
            "NORMAL": 45,
            "POSITION": 44,
            "TEXCOORD_0": 46
          },
          "indices": 47,
          "material": 0,
          "mode": 4
        }
      ]
    },
    {
      "name": "Cylinder.006_Paint_0",
      "primitives": [
        {
          "attributes": {
            "NORMAL": 49,
            "POSITION": 48,
            "TEXCOORD_0": 50
          },
          "indices": 51,
          "material": 0,
          "mode": 4
        }
      ]
    },
    {
      "name": "Cylinder.007_Paint_0",
      "primitives": [
        {
          "attributes": {
            "NORMAL": 53,
            "POSITION": 52,
            "TEXCOORD_0": 54
          },
          "indices": 55,
          "material": 0,
          "mode": 4
        }
      ]
    }
  ],
  "nodes": [
    {
      "children": [
        1
      ],
      "matrix": [
        1.0,
        0.0,
        0.0,
        0.0,
        0.0,
        2.220446049250313e-16,
        -1.0,
        0.0,
        0.0,
        1.0,
        2.220446049250313e-16,
        0.0,
        0.0,
        0.0,
        0.0,
        1.0
      ],
      "name": "Sketchfab_model"
    },
    {
      "children": [
        2
      ],
      "matrix": [
        0.009999999776482582,
        0.0,
        0.0,
        0.0,
        0.0,
        0.0,
        0.009999999776482582,
        0.0,
        0.0,
        -0.009999999776482582,
        0.0,
        0.0,
        0.0,
        0.0,
        0.0,
        1.0
      ],
      "name": "46295a4e32a24b1f9fa04aa4ff18a812.fbx"
    },
    {
      "children": [
        3,
        25,
        27,
        29
      ],
      "name": "RootNode"
    },
    {
      "children": [
        4,
        5,
        7,
        9,
        11,
        13,
        15,
        17,
        19,
        21,
        23
      ],
      "matrix": [
        99.98045024659761,
        -1.977648696452784,
        -1.975537216253735e-07,
        0.0,
        -5.19714915200864e-07,
        -1.6284974746483272e-05,
        -99.99999999999868,
        0.0,
        1.9776486964527253,
        99.9804502465963,
        -1.6292069204373744e-05,
        0.0,
        0.0,
        0.0,
        0.0,
        1.0
      ],
      "name": "Plane"
    },
    {
      "mesh": 0,
      "name": "Plane_Paint_0"
    },
    {
      "children": [
        6
      ],
      "matrix": [
        0.08425909280776978,
        6.508483295961518e-12,
        -5.820766677776948e-11,
        0.0,
        6.508498068738588e-12,
        0.08217819461063168,
        0.01861018676224143,
        0.0,
        5.820766512595128e-11,
        -0.01861018676224143,
        0.08217819461063168,
        0.0,
        1.2636796858941976e-19,
        1.6265546083450317,
        0.5980865955352783,
        1.0
      ],
      "name": "Cylinder"
    },
    {
      "mesh": 1,
      "name": "Cylinder_Paint_0"
    },
    {
      "children": [
        8
      ],
      "matrix": [
        1.0,
        -1.1099519740820349e-16,
        -4.272190086485797e-18,
        0.0,
        1.1099519740820349e-16,
        1.0,
        3.469446951953613e-18,
        0.0,
        4.272190086485797e-18,
        -3.4694469519536138e-18,
        1.0,
        0.0,
        0.3514634966850281,
        1.6376197338104248,
        0.22096432745456696,
        1.0
      ],
      "name": "Cylinder.001"
    },
    {
      "mesh": 2,
      "name": "Cylinder.001_Paint_0"
    },
    {
      "children": [
        10
      ],
      "matrix": [
        0.9999747154003753,
        0.007111157426081251,
        -5.21328881079126e-10,
        0.0,
        -0.007103287466502598,
        0.998868040973379,
        0.047033817931061435,
        0.0,
        0.00033446540439617924,
        -0.04703262869610308,
        0.9988932975903021,
        0.0,
        0.5983015894889832,
        0.39901959896087646,
        0.582549512386322,
        1.0
      ],
      "name": "Cube"
    },
    {
      "mesh": 3,
      "name": "Cube_Paint_0"
    },
    {
      "children": [
        12
      ],
      "matrix": [
        1.0,
        -1.1099519740820349e-16,
        -4.272190086485797e-18,
        0.0,
        1.1099519740820349e-16,
        1.0,
        3.469446951953613e-18,
        0.0,
        4.272190086485797e-18,
        -3.4694469519536138e-18,
        1.0,
        0.0,
        0.5251593589782715,
        -0.20522895455360413,
        0.6894980669021606,
        1.0
      ],
      "name": "Cube.001"
    },
    {
      "mesh": 4,
      "name": "Cube.001_Paint_0"
    },
    {
      "children": [
        14
      ],
      "matrix": [
        1.0,
        -1.1099519740820349e-16,
        -4.272190086485797e-18,
        0.0,
        1.1099519740820349e-16,
        1.0,
        3.469446951953613e-18,
        0.0,
        4.272190086485797e-18,
        -3.4694469519536138e-18,
        1.0,
        0.0,
        8.616264812112671e-19,
        -1.4165053367614746,
        0.45687881112098694,
        1.0
      ],
      "name": "Plane.004"
    },
    {
      "mesh": 5,
      "name": "Plane.004_Paint_0"
    },
    {
      "children": [
        16
      ],
      "matrix": [
        1.1784344664243434,
        0.35872367482833106,
        3.465265151562908e-11,
        0.0,
        -0.35872367482833106,
        1.1784344664243434,
        2.3283064033511513e-10,
        0.0,
        3.4652663541400494e-11,
        -2.3283063854529515e-10,
        1.2318240404129028,
        0.0,
        0.2626485824584961,
        -1.3844008445739746,
        0.44984692335128784,
        1.0
      ],
      "name": "Plane.005"
    },
    {
      "mesh": 6,
      "name": "Plane.005_Paint_0"
    },
    {
      "children": [
        18
      ],
      "matrix": [
        1.0,
        -2.215025435434579e-16,
        5.1238943140842966e-17,
        0.0,
        5.123890705349739e-17,
        -1.6292067939183141e-07,
        -0.9999999999999868,
        0.0,
        2.2150255189133843e-16,
        0.9999999999999868,
        -1.6292067939183141e-07,
        0.0,
        -4.835925335653452e-19,
        1.6761449575424194,
        0.38310906291007996,
        1.0
      ],
      "name": "Plane.007"
    },
    {
      "mesh": 7,
      "name": "Plane.007_Paint_0"
    },
    {
      "children": [
        20
      ],
      "matrix": [
        -0.9999999999996663,
        -8.028051185051904e-07,
        -1.5099579909486972e-07,
        0.0,
        -6.76585098816848e-08,
        0.26560710688636213,
        -0.9640813579628288,
        0.0,
        8.140750061775763e-07,
        -0.9640813579624968,
        -0.2656071068863277,
        0.0,
        -1.904339342122643e-19,
        -1.4334543943405151,
        0.2176937758922577,
        1.0
      ],
      "name": "Plane.008"
    },
    {
      "mesh": 8,
      "name": "Plane.008_Paint_0"
    },
    {
      "children": [
        22
      ],
      "matrix": [
        -0.9999999999997986,
        -6.278329573009187e-07,
        -9.183326454130328e-08,
        0.0,
        6.284812649724803e-07,
        -0.9601545227833981,
        -0.27946966271527535,
        0.0,
        8.728614052712501e-08,
        -0.2794696627152768,
        0.9601545227835996,
        0.0,
        1.610097549757424e-18,
        1.6326279640197754,
        0.5980865955352783,
        1.0
      ],
      "name": "Plane.009"
    },
    {
      "mesh": 9,
      "name": "Plane.009_Paint_0"
    },
    {
      "children": [
        24
      ],
      "matrix": [
        -2.5338486109880477e-07,
        1.5552651882171424,
        6.938840964348027e-18,
        0.0,
        -1.555265307426432,
        -2.533848805204632e-07,
        1.7691838922777464e-17,
        0.0,
        1.7691840053258e-17,
        -6.938838613835704e-18,
        1.5552653074264526,
        0.0,
        0.5952719449996948,
        -0.4525047242641449,
        0.4257168173789978,
        1.0
      ],
      "name": "Plane.006"
    },
    {
      "mesh": 10,
      "name": "Plane.006_Paint_0"
    },
    {
      "children": [
        26
      ],
      "matrix": [
        95.97819844109344,
        1.195335972267321e-06,
        28.074613053847084,
        0.0,
        28.074613053846914,
        -1.594241859020379e-05,
        -95.97819844109216,
        0.0,
        3.3285109113379008e-06,
        99.99999999999872,
        -1.563683449390396e-05,
        0.0,
        49.77936553955078,
        24.60053253173828,
        85.77867889404297,
        1.0
      ],
      "name": "Cylinder.002"
    },
    {
      "mesh": 11,
      "name": "Cylinder.002_Paint_0"
    },
    {
      "children": [
        28
      ],
      "matrix": [
        100.0,
        0.0,
        0.0,
        0.0,
        0.0,
        -1.629206793918314e-05,
        -99.99999999999868,
        0.0,
        0.0,
        99.99999999999868,
        -1.629206793918314e-05,
        0.0,
        53.82707214355469,
        24.600536346435547,
        -97.32034301757813,
        1.0
      ],
      "name": "Cylinder.006"
    },
    {
      "mesh": 12,
      "name": "Cylinder.006_Paint_0"
    },
    {
      "children": [
        30
      ],
      "matrix": [
        99.25764955460336,
        -5.135548808890222e-07,
        12.162258456985393,
        0.0,
        12.162258456985397,
        7.486863534126648e-06,
        -99.25764955460308,
        0.0,
        -4.0082912683425675e-07,
        99.99999999999972,
        7.493743492403837e-06,
        0.0,
        -49.77939987182617,
        24.60053253173828,
        85.77867889404297,
        1.0
      ],
      "name": "Cylinder.007"
    },
    {
      "mesh": 13,
      "name": "Cylinder.007_Paint_0"
    }
  ],
  "samplers": [
    {
      "magFilter": 9729,
      "minFilter": 9987,
      "wrapS": 10497,
      "wrapT": 10497
    }
  ],
  "scene": 0,
  "scenes": [
    {
      "name": "Sketchfab_Scene",
      "nodes": [
        0
      ]
    }
  ],
  "textures": [
    {
      "sampler": 0,
      "source": 0
    }
  ]
}
